<?xml version="1.0" encoding="utf-8"?>
<!-- Generator: Adobe Illustrator 20.0.0, SVG Export Plug-In . SVG Version: 6.00 Build 0)  -->
<svg version="1.1" id="Layer_1" xmlns="http://www.w3.org/2000/svg" xmlns:xlink="http://www.w3.org/1999/xlink" x="0px" y="0px"
	 viewBox="0 0 295.7 341.1" style="enable-background:new 0 0 295.7 341.1;" xml:space="preserve">
<style type="text/css">
	.st0{fill:#FFFFFF;}
	.st1{fill:#2B325D;}
</style>
<rect class="st0" width="295.7" height="295.7"/>
<g>
	<polygon class="st1" points="280.6,63.3 280.6,55 277.9,55 277.9,51.2 276.6,51.2 276.6,55 273.9,55 273.9,63.3 254.1,63.3 
		254.1,54.1 252.9,54.1 252.9,51.2 251.7,51.2 251.7,54.1 250.9,54.1 250.9,51.2 249.7,51.2 249.7,54.1 248.9,54.1 248.9,51.2 
		247.6,51.2 247.6,54.1 246.8,54.1 246.8,51.2 245.6,51.2 245.6,54.1 244.5,54.1 244.5,67.1 241,67.1 241,69 239.5,69 239.5,67.1 
		234.5,67.1 234.5,69 233,69 233,67.1 227.9,67.1 227.9,69 226.4,69 226.4,67.1 221.4,67.1 221.4,69 219.9,69 219.9,67.1 
		214.8,67.1 214.8,69 213.3,69 213.3,67.1 208.2,67.1 208.2,69 206.7,69 206.7,67.1 201.7,67.1 201.7,47.1 202.2,47.1 202.2,46.3 
		201.7,46.3 201.7,37.9 202.2,37.9 202.2,37 201.7,37 201.7,29.1 199.2,28 199.2,30.5 198.2,30.1 198.2,27.5 196.6,26.9 194.5,26.9 
		194.5,29.3 193.5,29.3 193.5,26.9 190.2,26.9 190.1,27 190.1,30.3 189.6,30.5 189.6,27.5 188,29.1 188,39.4 184.5,39.4 184.5,35.4 
		181.3,35.4 181.3,31.9 172.3,31.9 172.3,35.4 169.1,35.4 169.1,39.4 165.5,39.4 165.5,29.1 164,27.5 164,30.5 163.5,30.3 163.5,27 
		163.3,26.9 160,26.9 160,29.3 159,29.3 159,26.9 157,26.9 155.4,27.5 155.4,30.1 154.4,30.5 154.4,28 151.8,29.1 151.8,37 
		151.4,37 151.4,37.9 151.8,37.9 151.8,46.3 151.4,46.3 151.4,47.1 151.8,47.1 151.8,49.8 149.8,50.6 149.8,52.6 148.9,52.6 
		148.9,51 147,51.8 147,62.7 144.9,62.7 144.9,64.6 143.4,64.6 143.4,62.7 141,62.7 141,55.4 141.6,55.4 141.6,53.8 141,53.8 
		140.4,53.8 140.4,51.8 139.6,51.8 139.6,53.8 139,53.8 139,51.8 138.2,51.8 138.2,53.8 137.7,53.8 137.7,51.8 136.9,51.8 
		136.9,53.8 136.4,53.8 136.4,51.8 135.6,51.8 135.6,53.8 135,53.8 135,51.8 134.2,51.8 134.2,53.8 133.6,53.8 133,53.8 133,55.4 
		133.6,55.4 133.6,62.7 129.2,62.7 129.2,64.6 127.7,64.6 127.7,62.7 123.9,62.7 123.9,53.4 123.3,53.4 123.3,51.1 122.3,51.1 
		122.3,53.4 121.4,53.4 121.4,51.1 120.4,51.1 120.4,53.4 119.8,53.4 119.8,62.7 115.7,62.7 115.7,64.6 114.2,64.6 114.2,62.7 
		110.1,62.7 110.1,61.6 106,61.6 106,63.5 104.5,63.5 104.5,61.6 99.5,61.6 99.5,55.2 100,55.2 100,53.4 98.6,53.4 98.6,51.1 
		97.6,51.1 97.6,53.4 96.7,53.4 96.7,51.1 95.7,51.1 95.7,53.4 94.8,53.4 94.8,51.1 93.8,51.1 93.8,53.4 92.9,53.4 92.9,51.1 
		91.9,51.1 91.9,53.4 90.5,53.4 90.5,55.2 91,55.2 91,61.6 90.1,61.6 90.1,52.4 89.8,51.9 89.8,49.6 89.3,49.6 89.3,49 88.7,49 
		88.7,48.4 88.2,48.4 88.2,47.8 87.6,47.8 87.6,47.2 87,47.2 87,46.6 86,46.6 86,48.7 85,48.7 85,61.6 81.1,61.6 81.1,55.2 
		81.6,55.2 81.6,53.4 79.7,53.4 79.7,51.1 78.7,51.1 78.7,53.4 77.8,53.4 77.8,51.1 76.8,51.1 76.8,53.4 76,53.4 76,51.1 74.9,51.1 
		74.9,53.4 73.1,53.4 73.1,55.2 73.6,55.2 73.6,61.6 72.3,61.6 72.3,63.5 70.8,63.5 70.8,61.6 64.3,61.6 64.3,63.5 62.8,63.5 
		62.8,61.6 56.3,61.6 56.3,63.5 54.8,63.5 54.8,61.6 48.4,61.6 48.4,63.5 46.9,63.5 46.9,61.6 46.3,61.6 46.3,55.2 46.9,55.2 
		46.9,53.4 45.3,53.4 45.3,51.1 44.3,51.1 44.3,53.4 43.5,53.4 43.5,51.1 42.5,51.1 42.5,53.4 41.6,53.4 41.6,51.1 40.6,51.1 
		40.6,53.4 39.7,53.4 39.7,51.1 38.7,51.1 38.7,53.4 37.9,53.4 37.9,51.1 36.9,51.1 36.9,53.4 35.3,53.4 35.3,55.2 35.9,55.2 
		35.9,57.4 35.9,61.6 35.9,63.5 33.4,63.5 33.4,61.6 33.4,60.1 24.9,60.1 24.9,61.6 24.9,63.5 23.4,63.5 23.4,61.6 23.4,60.1 
		18.1,60.1 18.1,61.6 12.3,61.6 12.3,283.5 283.5,283.5 283.5,63.3 	"/>
	<path class="st1" d="M172.9,31.6h7.9v-0.5h0.3v-0.4h-0.3c-0.2-3-3.1-3.6-3.8-4.6v-1.7c0.6-0.1,1.1-0.6,1.1-1.2s-0.5-1.1-1.1-1.2
		v-1.3h1.2v-0.3H177v-1.5h1.5l1.4-1l-1.4-1H177v-0.7c0.3-0.1,0.5-0.3,0.5-0.6c0-0.3-0.3-0.6-0.6-0.6s-0.6,0.3-0.6,0.6
		c0,0.3,0.2,0.5,0.5,0.6v0.7h-2.9l1.4,1l-1.4,1h2.9v1.5h-1.2v0.3h1.2V22c-0.6,0.1-1.1,0.6-1.1,1.2s0.5,1.1,1.1,1.2v1.7
		c-0.7,1-3.6,1.6-3.8,4.6h-0.3v0.4h0.3V31.6z"/>
</g>
<g>
	<g>
		<path class="st0" d="M49.3,171.4H37.7v16h-3.2v-42.9h15.6c9.4,0,16,4.8,16,13.1v0.1C66,166.7,58.2,171.4,49.3,171.4z M62.8,157.8
			c0-6.8-5.3-10.4-13-10.4H37.7v21h11.8c8,0,13.4-4.2,13.4-10.6V157.8z"/>
		<path class="st0" d="M101.2,187.4l-5.5-12H70.4l-5.5,12h-3.3l20-43.3h3.1l20,43.3H101.2z M83.1,147.7l-11.3,24.8h22.6L83.1,147.7z
			"/>
		<path class="st0" d="M110.2,187.4v-42.9h3.2v40h25.2v2.9H110.2z"/>
		<path class="st0" d="M182.1,187.4l-5.5-12h-25.3l-5.5,12h-3.3l20-43.3h3.1l20,43.3H182.1z M164,147.7l-11.3,24.8h22.6L164,147.7z"
			/>
		<path class="st0" d="M207.7,188.1c-12.3,0-21.3-9.8-21.3-22.1v-0.1c0-12.1,9.1-22.2,21.5-22.2c7.7,0,12.3,2.8,16.7,6.9l-2.3,2.3
			c-3.7-3.6-8-6.3-14.5-6.3c-10.3,0-18.1,8.4-18.1,19.2v0.1c0,10.9,7.9,19.3,18.2,19.3c6.2,0,10.4-2.4,14.8-6.7l2.1,2.1
			C220.2,185.1,215.3,188.1,207.7,188.1z"/>
		<path class="st0" d="M230.4,187.4v-42.9h30.6v2.9h-27.4v16.9h24.6v2.9h-24.6v17.2h27.7v2.9H230.4z"/>
	</g>
	<g>
		<path class="st0" d="M50.1,114H37.8v16.9h-3.4V85.6h16.4c10,0,16.8,5.1,16.8,13.8v0.1C67.7,109,59.5,114,50.1,114z M64.4,99.6
			c0-7.2-5.6-10.9-13.7-10.9H37.8v22.2h12.4c8.4,0,14.1-4.4,14.1-11.1V99.6z"/>
		<path class="st0" d="M75.2,130.8V85.6h3.4v45.3H75.2z"/>
		<path class="st0" d="M106,88.7v42.2h-3.4V88.7H86.9v-3.1h34.9v3.1H106z"/>
		<path class="st0" d="M145.1,131.6c-12.9,0-22.5-10.3-22.5-23.3v-0.1c0-12.8,9.6-23.4,22.6-23.4c8.1,0,12.9,3,17.6,7.2l-2.4,2.5
			c-3.9-3.8-8.5-6.7-15.3-6.7c-10.9,0-19.1,8.9-19.1,20.2v0.1c0,11.4,8.3,20.4,19.1,20.4c6.5,0,11-2.5,15.6-7.1l2.3,2.2
			C158.3,128.4,153.1,131.6,145.1,131.6z"/>
		<path class="st0" d="M202.6,130.8v-21.2h-29v21.2h-3.4V85.6h3.4v21h29v-21h3.4v45.3H202.6z"/>
		<g>
			<path class="st0" d="M218.8,108.7c0-12.2,9.1-23.3,21.6-23.3c12,0,20.9,9.3,20.9,20c0,8.9-4.9,12.6-8.5,12.6
				c-4.1,0-5.6-3.2-5.5-6.3c-1.8,3.6-5.2,6.3-9.1,6.3c-4.9,0-8.5-3.2-8.5-8.5c0-6.9,5.2-12.1,10.8-12.1c4,0,7.2,2.5,7.9,6.3l0.9-5.1
				l1,0.2l-1.8,9.9c-0.2,1-0.3,2-0.3,2.9c0,3.2,1.2,5.5,4.5,5.5c3.3,0,7.5-3.4,7.5-11.6c0-10.3-8.5-19.1-19.9-19.1
				c-12,0-20.5,10.6-20.5,22.3c0,12.7,9.3,21.1,21,21.1c4.6,0,8.6-1.2,12-3.5l0.6,0.8c-3.6,2.4-7.7,3.6-12.6,3.6
				C228.5,130.7,218.8,121.9,218.8,108.7z M247.7,106.1c0-4.3-3.2-7.7-7.3-7.7c-5.1,0-9.6,4.8-9.6,11c0,4.8,3.1,7.6,7.4,7.6
				C243.5,117,247.7,111.6,247.7,106.1z"/>
		</g>
	</g>
</g>
<rect x="173" y="37.7" transform="matrix(0.7071 -0.7071 0.7071 0.7071 22.3917 137.1976)" class="st0" width="7.7" height="7.7"/>
<polygon class="st0" points="186.9,341.1 147.9,325.1 108.8,341.1 108.8,204.3 186.9,204.3 "/>
<g>
	<path class="st1" d="M147.9,259.5c-2,0-3.6,1.6-3.6,3.6c0,2,1.6,3.6,3.6,3.6c2,0,3.6-1.6,3.6-3.6
		C151.5,261.1,149.8,259.5,147.9,259.5z M145.5,260.7c0.3-0.3,0.8-0.3,1.1,0c0.3,0.3,0.3,0.8,0,1.1c-0.3,0.3-0.8,0.3-1.1,0
		C145.2,261.5,145.2,261,145.5,260.7z M144.5,263c0-0.4,0.3-0.8,0.8-0.8c0.4,0,0.8,0.3,0.8,0.8c0,0.4-0.3,0.8-0.8,0.8
		C144.9,263.8,144.5,263.5,144.5,263z M146.6,265.4c-0.3,0.3-0.8,0.3-1.1,0c-0.3-0.3-0.3-0.8,0-1.1c0.3-0.3,0.8-0.3,1.1,0
		C146.9,264.6,146.9,265.1,146.6,265.4z M147.9,266.4c-0.4,0-0.8-0.3-0.8-0.8c0-0.4,0.3-0.8,0.8-0.8s0.8,0.3,0.8,0.8
		C148.6,266,148.3,266.4,147.9,266.4z M147.9,263.8c-0.4,0-0.8-0.3-0.8-0.8c0-0.4,0.3-0.8,0.8-0.8c0.4,0,0.8,0.3,0.8,0.8
		C148.6,263.5,148.3,263.8,147.9,263.8z M147.9,261.2c-0.4,0-0.8-0.3-0.8-0.8c0-0.4,0.3-0.8,0.8-0.8c0.4,0,0.8,0.3,0.8,0.8
		C148.6,260.9,148.3,261.2,147.9,261.2z M149.1,260.7c0.3-0.3,0.8-0.3,1.1,0c0.3,0.3,0.3,0.8,0,1.1c-0.3,0.3-0.8,0.3-1.1,0
		C148.8,261.5,148.8,261,149.1,260.7z M150.2,265.4c-0.3,0.3-0.8,0.3-1.1,0c-0.3-0.3-0.3-0.8,0-1.1c0.3-0.3,0.8-0.3,1.1,0
		C150.5,264.6,150.5,265.1,150.2,265.4z M150.4,263.8c-0.4,0-0.8-0.3-0.8-0.8c0-0.4,0.3-0.8,0.8-0.8c0.4,0,0.8,0.3,0.8,0.8
		C151.2,263.5,150.9,263.8,150.4,263.8z"/>
	<path class="st1" d="M147.4,268.2c0,0.5,0.5,2,0.5,2s0.5-1.5,0.5-2c0-0.5-0.2-0.9-0.5-0.9C147.6,267.3,147.4,267.7,147.4,268.2z"/>
	<path class="st1" d="M152.6,265.1c0.5,0.1,2,0.1,2,0.1s-1.3-0.9-1.7-1.1c-0.5-0.1-0.9-0.1-1,0.2
		C151.9,264.6,152.2,264.9,152.6,265.1z"/>
	<path class="st1" d="M151.3,259.2c0.3-0.4,0.8-1.9,0.8-1.9s-1.3,0.9-1.6,1.3c-0.3,0.4-0.3,0.8-0.1,1
		C150.6,259.7,151,259.5,151.3,259.2z"/>
	<path class="st1" d="M145.2,258.6c-0.3-0.4-1.6-1.3-1.6-1.3s0.5,1.5,0.8,1.9c0.3,0.4,0.7,0.6,0.9,0.4
		C145.6,259.4,145.5,259,145.2,258.6z"/>
	<path class="st1" d="M142.8,264.2c-0.5,0.1-1.7,1.1-1.7,1.1s1.6,0,2-0.1c0.5-0.1,0.8-0.5,0.7-0.7
		C143.7,264.1,143.3,264,142.8,264.2z"/>
	<path class="st1" d="M149.9,249.2c0,0-0.5-0.2-1.2-0.2c-0.1-1.5-0.8-2.2-0.9-2.2h-0.1l0,0c0,0-0.7,0.6-0.8,2.2
		c-0.6,0-1.1,0.2-1.2,0.2l-0.4,0.2l0.4,0.1c0,0,1.6,0.5,1.9,4.4h0c0,0.1,0.1,0.3,0.1,0.3c0.1,0,0.1-0.1,0.1-0.3h0
		c0.3-3.9,1.9-4.4,1.9-4.4l0.5-0.1L149.9,249.2z M147.9,252.6c-0.4-2.1-1.1-2.9-1.6-3.2c0.2,0,0.5-0.1,0.8-0.1l0.2,0l0-0.2
		c0.1-1.2,0.4-1.8,0.6-2c0.2,0.2,0.5,0.8,0.6,2l0,0.2l0.2,0c0.3,0,0.6,0,0.8,0.1C149,249.7,148.2,250.5,147.9,252.6z"/>
	<path class="st1" d="M135.4,256.8c0,0-0.4,0.4-0.5,1c-1.5-0.3-2.3,0-2.4,0.2l0,0.1l0,0.1c0,0,0.4,0.8,1.8,1.4
		c-0.2,0.6-0.2,1.1-0.2,1.2l0,0.4l0.2-0.4c0,0,0.9-1.4,4.7-0.4v0c0.1,0,0.3,0,0.3-0.1c0-0.1-0.1-0.2-0.2-0.2l0,0
		c-3.6-1.5-3.6-3.1-3.6-3.1l0-0.5L135.4,256.8z M137.9,259.8c-2.1-0.3-3.1,0.2-3.5,0.5c0-0.2,0.1-0.5,0.2-0.8l0.1-0.1l-0.1-0.1
		c-1.1-0.4-1.6-1-1.7-1.2c0.3-0.1,1-0.3,2.1,0l0.1,0l0-0.1c0.1-0.3,0.2-0.6,0.3-0.8C135.5,257.8,136.1,258.8,137.9,259.8z"/>
	<path class="st1" d="M138.1,273c0,0,0.3,0.5,0.8,0.8c-0.8,1.3-0.7,2.2-0.6,2.3l0,0l0.1,0c0,0,0.9-0.1,1.9-1.3c0.5,0.4,1,0.5,1,0.5
		l0.4,0.1l-0.3-0.3c0,0-1-1.3,1-4.6l0,0c0.1-0.1,0.1-0.3,0-0.3c-0.1,0-0.2,0-0.3,0.1l0,0c-2.5,3-4.1,2.4-4.1,2.4l-0.4-0.2L138.1,273
		z M141.7,271.5c-0.9,1.9-0.8,3-0.6,3.5c-0.2-0.1-0.4-0.2-0.7-0.4l-0.1-0.1l-0.1,0.1c-0.8,0.9-1.4,1.2-1.7,1.3c0-0.3,0-1,0.7-2
		l0.1-0.1l-0.1-0.1c-0.3-0.2-0.5-0.4-0.6-0.5C139.1,273.2,140.2,273,141.7,271.5z"/>
	<path class="st1" d="M154.3,275.4c0,0,0.5-0.1,1-0.5c1,1.2,1.9,1.3,2,1.3l0,0l0-0.1c0,0,0.2-0.9-0.6-2.2c0.5-0.4,0.8-0.8,0.8-0.8
		l0.2-0.4l-0.4,0.2c0,0-1.6,0.6-4.1-2.4l0,0c-0.1-0.1-0.2-0.2-0.3-0.1c-0.1,0-0.1,0.2,0,0.3h0c2.1,3.3,1,4.6,1,4.6l-0.3,0.4
		L154.3,275.4z M154,271.5c1.5,1.5,2.6,1.7,3.2,1.6c-0.1,0.2-0.3,0.4-0.6,0.5l-0.1,0.1l0.1,0.1c0.6,1,0.7,1.7,0.7,2
		c-0.3-0.1-0.9-0.4-1.7-1.3l-0.1-0.1l-0.1,0.1c-0.2,0.2-0.5,0.3-0.7,0.4C154.8,274.5,155,273.4,154,271.5z"/>
	<path class="st1" d="M161.7,260.7c0,0,0-0.6-0.2-1.2c1.4-0.6,1.9-1.4,1.8-1.6l0-0.1l0,0c0,0-0.8-0.5-2.3-0.1c-0.2-0.6-0.5-1-0.5-1
		l-0.3-0.3l0,0.4c0,0,0.1,1.7-3.6,3.1l0,0c-0.1,0-0.2,0.1-0.2,0.2c0,0.1,0.2,0.1,0.3,0.1v0c3.8-0.9,4.7,0.4,4.7,0.4l0.2,0.4
		L161.7,260.7z M157.8,259.8c1.9-1,2.4-2,2.5-2.5c0.1,0.2,0.2,0.4,0.3,0.8l0,0.1l0.1,0c1.1-0.3,1.8-0.1,2.1,0
		c-0.2,0.2-0.6,0.8-1.7,1.2l-0.1,0.1l0.1,0.1c0.1,0.3,0.2,0.6,0.2,0.8C160.9,260,159.9,259.5,157.8,259.8z"/>
	<path class="st1" d="M152.4,273.7c-0.1-1.2-1.1-1.6-1.1-1.6s1.1,1.7,0,2.3c-1.4,0.8-2.6-0.2-3.4-0.2l0,0h0l0,0l0,0
		c-0.8,0-2,1.1-3.4,0.2c-1.1-0.7,0-2.3,0-2.3s-1.1,0.3-1.1,1.6c-0.1,1.6,1.9,2.3,2.8,1.8c0.7-0.4,1.7-0.4,1.7-0.4s0.9,0,1.7,0.4
		C150.5,276,152.5,275.3,152.4,273.7z"/>
	<path class="st1" d="M159.4,262c-1.2-0.3-1.8,0.6-1.8,0.6s2-0.6,2.2,0.7c0.3,1.6-1,2.4-1.3,3.2l0,0l0,0l0,0l0,0
		c-0.3,0.8,0.4,2.2-0.8,3.3c-1,0.9-2.2-0.7-2.2-0.7s0,1.1,1.1,1.5c1.5,0.6,2.8-1.1,2.6-2.1c-0.1-0.8,0.1-1.7,0.1-1.7
		c0,0,0.3-0.9,0.9-1.5C161,264.6,160.9,262.5,159.4,262z"/>
	<path class="st1" d="M150.5,251.8c-0.7,1,0,1.9,0,1.9s0.1-2,1.4-1.9c1.6,0.2,1.9,1.7,2.6,2.2l0,0l0,0l0,0l0,0
		c0.7,0.5,2.2,0.3,2.9,1.8c0.5,1.2-1.4,1.9-1.4,1.9s1.1,0.4,1.8-0.6c1-1.3-0.2-3-1.2-3.1c-0.8-0.1-1.6-0.7-1.6-0.7
		c0,0-0.8-0.6-1.1-1.3C153.4,251,151.4,250.4,150.5,251.8z"/>
	<path class="st1" d="M138,257.1c0.8,1,1.8,0.6,1.8,0.6s-1.9-0.7-1.4-1.9c0.7-1.5,2.2-1.3,2.9-1.8l0,0l0,0l0,0l0,0
		c0.7-0.5,1-2,2.6-2.2c1.3-0.1,1.4,1.9,1.4,1.9s0.7-0.9,0-1.9c-0.9-1.4-2.9-0.8-3.4,0.2c-0.4,0.7-1.1,1.3-1.1,1.3
		c0,0-0.8,0.5-1.6,0.7C138.1,254.1,137,255.8,138,257.1z"/>
	<path class="st1" d="M139.1,270.6c1.2-0.4,1.1-1.5,1.1-1.5s-1.3,1.6-2.2,0.7c-1.2-1.1-0.6-2.5-0.8-3.3l0,0l0,0l0,0l0,0
		c-0.3-0.8-1.6-1.6-1.3-3.2c0.3-1.3,2.2-0.7,2.2-0.7s-0.6-0.9-1.8-0.6c-1.6,0.4-1.6,2.5-0.9,3.3c0.6,0.6,0.9,1.5,0.9,1.5
		c0,0,0.3,0.9,0.1,1.7C136.3,269.5,137.6,271.2,139.1,270.6z"/>
	<path class="st1" d="M147.9,277.2c-3.7,0-5.7-1.9-5.9-3.8c-0.1-1.2,0.7-1.9,1.5-2.6c0.6-0.5,1.1-1,1.1-1.5c0-0.6-0.3-0.9-0.4-1l0,0
		c0,0-0.3-0.2-0.7-0.2c-0.1,0-0.3,0-0.4,0.1c-0.5,0.2-0.8,0.8-1.1,1.5c-0.4,0.9-0.8,1.9-2,2.2c-0.2,0.1-0.5,0.1-0.7,0.1
		c-2,0-3.8-1.8-4.7-4.5c-1.1-3.5,0-6.1,1.8-6.7c0.3-0.1,0.6-0.2,0.8-0.2c0.8,0,1.5,0.4,2.1,0.8c0.5,0.3,1,0.6,1.5,0.6l0,0
		c0.1,0,0.2,0,0.3,0c0.7-0.2,0.8-0.8,0.8-0.8c0,0,0.2-0.6-0.2-1.1c-0.3-0.5-1-0.5-1.8-0.6c-1-0.1-2.1-0.2-2.7-1.2
		c-1-1.6-0.5-4.3,2.5-6.5c1.4-1,2.8-1.6,4.2-1.6c1.2,0,2.2,0.4,2.8,1.2c0.8,0.9,0.5,2,0.3,3c-0.2,0.7-0.3,1.4,0,1.9
		c0.4,0.5,0.9,0.6,1,0.6h0c0.1,0,0.6,0,1-0.6c0.3-0.5,0.2-1.1,0-1.9c-0.2-1-0.4-2,0.3-3c0.6-0.7,1.6-1.2,2.8-1.2
		c1.3,0,2.8,0.5,4.2,1.6c3,2.2,3.5,4.9,2.5,6.5c-0.6,1-1.7,1.1-2.7,1.2c-0.8,0.1-1.4,0.1-1.8,0.6c-0.4,0.6-0.2,1.1-0.2,1.1
		c0,0,0.2,0.6,0.8,0.8c0.1,0,0.2,0,0.3,0c0.5,0,1-0.3,1.5-0.6c0.6-0.4,1.3-0.8,2.1-0.8c0.3,0,0.6,0.1,0.8,0.2
		c1.7,0.7,2.9,3.2,1.8,6.7c-0.9,2.7-2.7,4.5-4.7,4.5c-0.2,0-0.5,0-0.7-0.1c-1.2-0.3-1.6-1.3-2-2.2c-0.3-0.7-0.6-1.3-1.1-1.5
		c-0.1-0.1-0.3-0.1-0.4-0.1c-0.4,0-0.7,0.2-0.7,0.2c0,0-0.5,0.3-0.5,1c0,0.6,0.5,1,1.1,1.5c0.7,0.7,1.5,1.4,1.5,2.6
		C153.6,275.3,151.6,277.2,147.9,277.2z M144.3,268c0.1,0.1,0.6,0.5,0.6,1.3c0,0.7-0.6,1.2-1.2,1.7c-0.7,0.6-1.4,1.3-1.4,2.4
		c0.1,1.7,2.1,3.5,5.6,3.5c3.5,0,5.5-1.8,5.6-3.5c0.1-1.1-0.7-1.7-1.4-2.4c-0.6-0.5-1.2-1-1.2-1.7c0-0.9,0.6-1.3,0.6-1.3
		c0,0,0.3-0.3,0.9-0.3c0.2,0,0.4,0,0.5,0.1c0.7,0.2,1,0.9,1.3,1.6c0.4,0.9,0.8,1.8,1.8,2c0.2,0.1,0.4,0.1,0.6,0.1
		c1.4,0,3.4-1.1,4.4-4.3c1.1-3.3,0-5.7-1.6-6.4c-0.2-0.1-0.5-0.1-0.7-0.1c-0.7,0-1.3,0.4-1.9,0.7c-0.6,0.3-1.1,0.6-1.6,0.6
		c-0.1,0-0.3,0-0.4-0.1c-0.8-0.2-1-0.9-1-1c0,0-0.2-0.7,0.3-1.4c0.4-0.6,1.2-0.6,2-0.7c0.9-0.1,1.9-0.2,2.5-1.1
		c0.9-1.5,0.4-4-2.5-6.1c-1.4-1-2.7-1.5-4-1.5c-1.1,0-2,0.4-2.5,1.1c-0.7,0.8-0.5,1.8-0.3,2.7c0.2,0.8,0.3,1.5-0.1,2.1
		c-0.5,0.7-1.1,0.7-1.2,0.7h0c-0.1,0-0.8,0-1.2-0.7c-0.4-0.6-0.2-1.3-0.1-2.1c0.2-0.9,0.4-1.9-0.3-2.7c-0.6-0.7-1.5-1.1-2.5-1.1
		c-0.9,0-2.3,0.3-4,1.5c-2.8,2.1-3.4,4.6-2.5,6.1c0.6,0.9,1.5,1,2.5,1.1c0.8,0.1,1.5,0.2,2,0.7c0.5,0.7,0.3,1.4,0.3,1.4
		c0,0-0.2,0.7-1,1c-0.1,0-0.3,0.1-0.4,0.1l0,0c-0.5,0-1.1-0.3-1.6-0.6c-0.6-0.4-1.2-0.7-1.9-0.7c-0.2,0-0.5,0-0.7,0.1
		c-1.6,0.6-2.7,3-1.6,6.4c0.6,2,2.2,4.3,4.4,4.3h0c0.2,0,0.4,0,0.6-0.1c1-0.3,1.4-1.2,1.8-2c0.3-0.7,0.6-1.4,1.3-1.6
		c0.2-0.1,0.4-0.1,0.5-0.1C143.9,267.8,144.2,268,144.3,268L144.3,268z"/>
	<g>
		<path class="st1" d="M127.3,272.1c-0.1-0.3-0.2-0.4-0.3-0.5c-0.1,0-0.3,0-0.6,0.1l-3.1,1c-0.3,0.1-0.4,0.2-0.5,0.3
			c-0.1,0.1,0,0.3,0,0.6l-0.1,0l-0.6-2l0.1,0c0.1,0.3,0.2,0.4,0.3,0.5c0.1,0.1,0.3,0,0.5,0l1.4-0.4l-0.7-2.2l-1.4,0.4
			c-0.3,0.1-0.4,0.2-0.5,0.3c-0.1,0.1,0,0.3,0,0.6l-0.1,0l-0.6-2l0.1,0c0.1,0.3,0.2,0.4,0.3,0.5c0.1,0.1,0.3,0,0.5,0l3.2-1
			c0.3-0.1,0.4-0.2,0.5-0.3c0-0.1,0-0.3,0-0.6l0.1,0l0.6,2l-0.1,0c-0.1-0.3-0.2-0.4-0.3-0.5c-0.1,0-0.3,0-0.6,0.1l-1.4,0.4l0.7,2.2
			l1.5-0.5c0.3-0.1,0.4-0.2,0.5-0.3c0.1-0.1,0-0.3,0-0.6l0.1,0l0.6,2L127.3,272.1z"/>
		<path class="st1" d="M121.4,266.4c-0.5-0.4-0.7-1-0.8-1.7c0-0.7,0.1-1.3,0.6-1.8c0.5-0.5,1.1-0.8,1.9-0.9c0.8,0,1.5,0.2,2,0.7
			c0.5,0.4,0.7,1,0.8,1.7c0,0.7-0.2,1.3-0.6,1.8c-0.5,0.5-1.1,0.8-1.8,0.8C122.6,267.1,121.9,266.9,121.4,266.4z M125.1,265.6
			c0.4-0.3,0.5-0.7,0.5-1.2c0-0.4-0.2-0.8-0.6-1.1c-0.4-0.3-1-0.4-1.8-0.4c-0.8,0-1.4,0.2-1.8,0.6c-0.3,0.3-0.5,0.7-0.5,1.2
			c0,0.5,0.2,0.8,0.6,1.1c0.4,0.3,1,0.4,1.8,0.4C124.1,266.1,124.7,265.9,125.1,265.6z"/>
		<path class="st1" d="M125.4,261.7c0-0.3,0-0.5-0.1-0.6c-0.1-0.1-0.3-0.2-0.7-0.3l-3.3-0.6l-0.1,0.1c-0.1,0.1-0.2,0.2-0.3,0.2
			c0,0.1-0.1,0.2-0.1,0.3l-0.1,0l0.2-1.3l4.1-2.2l-2.5-0.4c-0.4-0.1-0.7-0.1-0.8,0c-0.1,0.1-0.2,0.2-0.2,0.5l-0.1,0l0.3-1.7l0.1,0
			c0,0.3,0,0.5,0.1,0.6c0.1,0.1,0.3,0.2,0.7,0.3l3.9,0.7l0,0.1l-4.7,2.6l2.9,0.5c0.4,0.1,0.7,0.1,0.8,0c0.1-0.1,0.2-0.2,0.3-0.5
			l0.1,0l-0.3,1.7L125.4,261.7z"/>
		<path class="st1" d="M126.6,256.2c0.1-0.3,0.1-0.5,0.1-0.6c0-0.1-0.2-0.2-0.5-0.3l-3.1-1.2c-0.3-0.1-0.4-0.1-0.6-0.1
			c-0.1,0.1-0.2,0.2-0.3,0.5l-0.1-0.1l0.8-2.1l0.1,0c-0.1,0.3-0.1,0.5-0.1,0.6c0,0.1,0.2,0.2,0.5,0.3l3.1,1.2
			c0.3,0.1,0.5,0.1,0.6,0.1c0.1-0.1,0.2-0.2,0.3-0.5l0.1,0l-0.8,2.1L126.6,256.2z"/>
		<path class="st1" d="M125.8,252.3c-0.1,0-0.2,0-0.3,0c-0.1,0-0.2-0.1-0.2-0.2c0-0.1,0-0.2,0-0.3c0-0.1,0.1-0.2,0.2-0.2
			c0.1,0,0.2,0,0.3,0c0.1,0,0.2,0.1,0.2,0.2c0,0.1,0,0.2,0,0.3C126,252.2,125.9,252.3,125.8,252.3z"/>
		<path class="st1" d="M127.2,251.3c0.4,0.1,0.7,0.1,0.9,0.1c0.5-0.1,0.8-0.3,1.1-0.6c0.1-0.2,0.2-0.4,0.2-0.6
			c0-0.2-0.2-0.4-0.4-0.6c-0.2-0.1-0.4-0.2-0.7-0.1c-0.2,0-0.4,0.1-0.8,0.3l-0.7,0.3c-0.2,0.1-0.4,0.2-0.6,0.2c-0.3,0-0.6,0-0.8-0.2
			c-0.3-0.2-0.5-0.5-0.6-0.8c-0.1-0.4,0-0.7,0.2-1.1c0.1-0.1,0.2-0.3,0.5-0.4c0.2-0.2,0.3-0.2,0.3-0.3c0.1-0.1,0.1-0.1,0.1-0.2
			c0-0.1-0.1-0.1-0.1-0.2l0.1-0.1l1.4,0.8l-0.1,0.2c-0.5-0.2-0.9-0.2-1.2-0.1c-0.3,0.1-0.5,0.3-0.7,0.5c-0.1,0.2-0.2,0.4-0.1,0.6
			c0,0.2,0.1,0.4,0.3,0.5c0.2,0.1,0.3,0.2,0.5,0.1c0.2,0,0.4-0.1,0.7-0.2l0.7-0.3c0.4-0.2,0.8-0.3,1.1-0.3c0.3,0,0.5,0.1,0.8,0.2
			c0.3,0.2,0.5,0.5,0.6,0.9c0.1,0.4,0,0.8-0.3,1.2c-0.1,0.2-0.3,0.4-0.5,0.5c-0.2,0.2-0.3,0.3-0.4,0.3c0,0.1-0.1,0.1,0,0.2
			c0,0.1,0.1,0.1,0.1,0.1l-0.1,0.1l-1.5-0.7L127.2,251.3z"/>
		<path class="st1" d="M128,245.2c0-0.6,0.3-1.2,0.8-1.7c0.5-0.5,1.1-0.7,1.7-0.7c0.7,0,1.3,0.3,1.9,0.9c0.6,0.6,0.8,1.2,0.8,1.9
			c0,0.6-0.3,1.2-0.8,1.6c-0.5,0.5-1.1,0.7-1.8,0.7c-0.7,0-1.3-0.3-1.8-0.8C128.3,246.6,128,245.9,128,245.2z M131,247.5
			c0.5,0.1,0.9-0.1,1.2-0.4c0.3-0.3,0.5-0.7,0.4-1.2c0-0.5-0.3-1-0.9-1.6c-0.6-0.6-1.1-0.9-1.6-0.9c-0.5,0-0.9,0.1-1.2,0.4
			c-0.3,0.3-0.5,0.7-0.4,1.2c0,0.5,0.3,1,0.9,1.6C130,247.1,130.5,247.4,131,247.5z"/>
		<path class="st1" d="M134.3,245.3c0.2-0.2,0.4-0.3,0.4-0.5c0-0.1,0-0.3-0.2-0.5l-1.9-2.8c-0.2-0.2-0.3-0.4-0.4-0.4
			c-0.1,0-0.3,0.1-0.6,0.2l-0.1-0.1l1.8-1.3l0.1,0.1c-0.2,0.2-0.4,0.3-0.4,0.5c0,0.1,0,0.3,0.2,0.5l1.9,2.8c0.2,0.2,0.3,0.4,0.4,0.4
			c0.1,0,0.3-0.1,0.6-0.2l0.1,0.1l-1.8,1.3L134.3,245.3z"/>
		<path class="st1" d="M134.5,239.3l3.9-1.8l0.6,1.1l-0.2,0.1c-0.3-0.3-0.5-0.5-0.6-0.6c-0.2-0.1-0.5,0-0.9,0.2l-0.4,0.2l1.6,3.5
			c0.1,0.3,0.2,0.4,0.4,0.4c0.1,0,0.3,0,0.6-0.1l0.1,0.1l-2,0.9l-0.1-0.1c0.3-0.2,0.4-0.3,0.5-0.4c0-0.1,0-0.3-0.2-0.6l-1.6-3.4
			l-0.4,0.2c-0.4,0.2-0.6,0.4-0.7,0.5c-0.1,0.2-0.1,0.5,0,0.9l-0.2,0.1L134.5,239.3z"/>
		<path class="st1" d="M140.1,239.8c-0.1-0.1-0.2-0.1-0.2-0.2c0-0.1,0-0.2,0-0.3c0.1-0.1,0.1-0.2,0.2-0.2c0.1,0,0.2,0,0.3,0
			c0.1,0,0.2,0.1,0.2,0.2c0,0.1,0,0.2,0,0.3c0,0.1-0.1,0.2-0.2,0.2C140.3,239.8,140.2,239.8,140.1,239.8z"/>
		<path class="st1" d="M142.5,236.9c0.4-0.5,0.9-0.8,1.6-0.9c0.7-0.1,1.3,0,1.8,0.4c0.6,0.4,0.9,1,1,1.8c0.1,0.6,0,1.2-0.3,1.7
			c-0.3,0.5-0.7,0.9-1.4,1.1c0.4,0.4,0.8,0.7,1.2,0.8c0.3,0.1,0.6,0.1,1,0.1l0,0.1l-0.3,0c-0.4,0.1-0.8,0.1-1.1,0.1
			c-0.3,0-0.6-0.1-0.9-0.2c-0.3-0.1-0.5-0.2-0.8-0.5c-0.3-0.2-0.4-0.3-0.4-0.3l-0.1,0c-0.4-0.1-0.8-0.3-1.1-0.5
			c-0.5-0.4-0.8-1-0.9-1.7C141.9,238.1,142,237.5,142.5,236.9z M143.5,240.5c0.4,0.3,0.8,0.5,1.2,0.4c0.4-0.1,0.8-0.3,1.1-0.7
			c0.3-0.4,0.3-1,0.2-1.8c-0.1-0.8-0.4-1.4-0.7-1.7c-0.4-0.3-0.8-0.4-1.2-0.4c-0.5,0.1-0.8,0.3-1.1,0.7c-0.3,0.4-0.3,1-0.2,1.8
			C142.9,239.6,143.2,240.2,143.5,240.5z"/>
		<path class="st1" d="M150,235.9l0,0.1c-0.3,0-0.5,0-0.6,0.1c-0.1,0.1-0.2,0.2-0.2,0.5l-0.2,2.4c0,0.4,0,0.7,0.1,0.9
			c0.2,0.4,0.5,0.7,1.1,0.7c0.6,0.1,1-0.1,1.3-0.5c0.1-0.2,0.2-0.6,0.3-1l0.2-2c0-0.4,0-0.7-0.1-0.8c-0.1-0.1-0.3-0.2-0.5-0.2l0-0.1
			l1.7,0.2l0,0.1c-0.3,0-0.5,0.1-0.6,0.2c-0.1,0.1-0.2,0.3-0.2,0.7l-0.2,2c0,0.5-0.2,0.9-0.4,1.2c-0.3,0.5-0.9,0.7-1.8,0.6
			c-0.8-0.1-1.3-0.4-1.6-1c-0.1-0.3-0.2-0.7-0.1-1.1l0.2-2.4c0-0.3,0-0.5-0.1-0.5c-0.1-0.1-0.3-0.2-0.5-0.2l0-0.1L150,235.9z"/>
		<path class="st1" d="M153,241.3c0.3,0.1,0.5,0.1,0.6,0c0.1,0,0.2-0.2,0.3-0.5l0.9-3.2c0.1-0.3,0.1-0.5,0-0.6
			c-0.1-0.1-0.2-0.2-0.5-0.3l0-0.1l2.1,0.6l0,0.1c-0.3-0.1-0.5-0.1-0.6,0c-0.1,0.1-0.2,0.2-0.3,0.5l-0.9,3.2c-0.1,0.3-0.1,0.5,0,0.6
			c0.1,0.1,0.2,0.2,0.5,0.3l0,0.1l-2.1-0.6L153,241.3z"/>
		<path class="st1" d="M156.8,240.2c0-0.1,0-0.2,0-0.3c0-0.1,0.1-0.2,0.2-0.2c0.1,0,0.2,0,0.3,0c0.1,0,0.2,0.1,0.2,0.2
			c0,0.1,0,0.2,0,0.3c0,0.1-0.1,0.2-0.2,0.2s-0.2,0-0.3,0C156.9,240.4,156.9,240.3,156.8,240.2z"/>
		<path class="st1" d="M157.5,242.7c0.3,0.1,0.5,0.2,0.6,0.2c0.1,0,0.3-0.2,0.5-0.6l1.7-2.6c0.2-0.2,0.2-0.4,0.2-0.5
			c0-0.1-0.2-0.3-0.4-0.4l0.1-0.1l1.2,0.8l-0.7,4.1l3.5-2.2l1.2,0.8l-0.1,0.1c-0.2-0.1-0.4-0.2-0.5-0.2c-0.1,0-0.2,0.1-0.4,0.4
			l-1.9,2.8c-0.2,0.2-0.2,0.4-0.2,0.5c0,0.1,0.1,0.3,0.4,0.4l-0.1,0.1l-1.8-1.2l0.1-0.1c0.3,0.1,0.5,0.2,0.6,0.2
			c0.1,0,0.3-0.2,0.4-0.4l1.9-2.8l-4,2.5l-0.1-0.1l0.7-4.5l-1.7,2.5c-0.2,0.3-0.3,0.6-0.3,0.8c0,0.1,0.1,0.3,0.3,0.4l-0.1,0.1
			l-1.5-1L157.5,242.7z"/>
		<path class="st1" d="M163,246.6l0.1-0.1c0.1,0.1,0.3,0.2,0.5,0.2c0.2,0,0.5-0.1,1.1-0.3l3.8-1.2l0.1,0.1l-2,4.2
			c-0.1,0.3-0.2,0.5-0.2,0.6c0,0.1,0,0.2,0.1,0.4l-0.1,0.1l-1.3-1.5l0.1-0.1c0.2,0.2,0.3,0.2,0.3,0.3c0.1,0,0.1,0,0.2-0.1
			c0,0,0.1-0.1,0.1-0.2c0.1-0.1,0.1-0.2,0.2-0.3l0.4-0.7l-1.3-1.5c-0.5,0.2-0.8,0.3-0.9,0.3c-0.1,0-0.2,0.1-0.2,0.1
			c-0.1,0.1-0.1,0.2-0.1,0.3c0,0.1,0.1,0.2,0.2,0.3l-0.1,0.1L163,246.6z M166.6,247.8l1-2l-2.1,0.7L166.6,247.8z"/>
		<path class="st1" d="M166.7,250.8c0.2,0.2,0.3,0.4,0.4,0.4c0.1,0,0.3,0,0.5-0.1l3-1.5c0.2-0.1,0.4-0.2,0.4-0.4
			c0-0.1,0-0.3-0.1-0.6l0.1-0.1l1,1.9l-0.1,0.1c-0.1-0.2-0.3-0.4-0.4-0.4c-0.1,0-0.3,0-0.5,0.1l-3.2,1.7c-0.1,0-0.1,0.1-0.2,0.1
			c0,0,0,0.1,0,0.2c0,0.1,0,0.1,0.1,0.2c0,0.1,0.1,0.2,0.2,0.3c0.3,0.6,0.6,1,0.8,1.1c0.2,0.2,0.6,0.2,1.1,0.2l0.1,0.2l-1.3,0.3
			l-1.9-3.6L166.7,250.8z"/>
		<path class="st1" d="M171,254.9c0-0.1,0.1-0.2,0.2-0.2c0.1,0,0.2,0,0.3,0c0.1,0,0.2,0.1,0.2,0.2c0,0.1,0,0.2,0,0.3
			c0,0.1-0.1,0.2-0.2,0.2c-0.1,0-0.2,0-0.3,0c-0.1,0-0.2-0.1-0.2-0.2C170.9,255.1,170.9,255,171,254.9z"/>
		<path class="st1" d="M174.5,257.7l-0.1,0c0-0.2-0.1-0.3-0.1-0.4c0-0.1-0.1-0.1-0.2-0.1c0,0-0.1,0-0.1,0c0,0-0.1,0.1-0.2,0.1
			l-1.4,1.4l1.8,0.8c0.1,0,0.1,0,0.2,0.1c0,0,0.1,0,0.1,0c0.1,0,0.2-0.1,0.2-0.2c0-0.1,0-0.2,0-0.4l0.1,0l0.3,1.6l-0.1,0
			c0-0.1-0.1-0.3-0.2-0.4c-0.2-0.2-0.4-0.3-0.8-0.5l-1.9-0.8l-1.4,0.3c-0.3,0.1-0.5,0.1-0.5,0.2c-0.1,0.1-0.1,0.3,0,0.7l-0.1,0
			l-0.4-2.3l0.1,0c0.1,0.3,0.2,0.5,0.3,0.6c0.1,0.1,0.3,0.1,0.6,0l1.3-0.2l1.3-1.2c0.4-0.4,0.7-0.7,0.8-0.9c0.1-0.2,0.2-0.3,0.1-0.5
			l0.1,0L174.5,257.7z"/>
		<path class="st1" d="M172.4,261.6c0.1-0.1,0.2-0.1,0.3-0.1c0.1,0,0.2,0,0.3,0.1c0.1,0.1,0.1,0.2,0.1,0.3c0,0.1,0,0.2-0.1,0.3
			c-0.1,0.1-0.2,0.1-0.3,0.1c-0.1,0-0.2,0-0.3-0.1c-0.1-0.1-0.1-0.2-0.1-0.3C172.2,261.8,172.3,261.7,172.4,261.6z"/>
		<path class="st1" d="M170.3,263.4c0,0.3,0,0.5,0.1,0.6c0.1,0.1,0.3,0.1,0.6,0.2l3.3,0.3c0.3,0,0.4,0,0.5-0.1
			c0.1-0.1,0.2-0.2,0.2-0.5l0.1,0l-0.2,2c-0.1,0.6-0.2,1.1-0.5,1.4c-0.3,0.3-0.6,0.4-1,0.4c-0.5-0.1-0.9-0.3-1.1-0.7
			c-0.2-0.4-0.3-0.9-0.2-1.4c0-0.1,0-0.2,0-0.3c0-0.1,0-0.2,0-0.3l-1.4-0.1c-0.3,0-0.5,0-0.5,0.1c-0.1,0.1-0.1,0.3-0.2,0.6l-0.1,0
			l0.2-2.1L170.3,263.4z M174.4,266.4c0.1-0.2,0.2-0.5,0.2-0.8c0-0.2,0-0.3,0-0.3c0,0-0.1-0.1-0.2-0.1l-2-0.2c0,0.1,0,0.2,0,0.3
			c0,0,0,0.1,0,0.1c0,0.3,0,0.6,0.1,0.8c0.1,0.4,0.5,0.6,0.9,0.6C173.9,266.9,174.2,266.7,174.4,266.4z"/>
		<path class="st1" d="M169.8,267.6c-0.1,0.3-0.1,0.5,0,0.6c0,0.1,0.2,0.2,0.5,0.3l3.2,1c0.3,0.1,0.4,0.1,0.5,0
			c0.1-0.1,0.2-0.2,0.3-0.5l0.1,0l-1.2,3.8l-1-0.3l0.1-0.2c0.3,0,0.6,0,0.7-0.1c0.1-0.1,0.3-0.4,0.4-0.8l0.3-1c0-0.1,0-0.2,0-0.2
			c0,0-0.1-0.1-0.2-0.1l-1.6-0.5l-0.4,1.1c-0.1,0.3-0.1,0.5,0,0.6c0.1,0.1,0.2,0.2,0.5,0.4l-0.1,0.2l-1.7-0.5l0.1-0.2
			c0.3,0,0.5,0,0.6,0c0.1-0.1,0.2-0.2,0.3-0.5l0.4-1.1l-1.8-0.6c-0.1,0-0.2,0-0.3,0.1c-0.1,0.1-0.2,0.3-0.3,0.8
			c-0.2,0.5-0.2,0.9-0.2,1.1c0,0.3,0.2,0.6,0.6,0.9l-0.1,0.2l-1.1-0.7l1.2-3.9L169.8,267.6z"/>
		<path class="st1" d="M168.3,272.3c-0.1,0.3-0.2,0.5-0.1,0.6c0,0.1,0.2,0.3,0.6,0.5l2.9,1.7l0.2,0c0.2,0,0.3-0.1,0.4-0.1
			c0.1-0.1,0.1-0.1,0.2-0.3l0.1,0.1l-0.7,1.1l-4.6,0.6l2.1,1.3c0.4,0.2,0.6,0.3,0.8,0.3c0.1,0,0.2-0.2,0.4-0.4l0.1,0.1l-0.9,1.5
			l-0.1-0.1c0.1-0.3,0.2-0.5,0.1-0.6c0-0.1-0.2-0.3-0.6-0.5l-3.4-2.1l0.1-0.1l5.3-0.7l-2.5-1.5c-0.4-0.2-0.6-0.3-0.8-0.3
			c-0.1,0-0.2,0.1-0.4,0.4l-0.1-0.1l0.9-1.5L168.3,272.3z"/>
		<path class="st1" d="M166.1,278.2c-0.3-0.1-0.6-0.2-0.9-0.2c-0.5,0-0.8,0.1-1.2,0.4c-0.2,0.2-0.3,0.4-0.3,0.6
			c0,0.2,0.1,0.4,0.3,0.6c0.2,0.2,0.4,0.3,0.6,0.3c0.2,0,0.5-0.1,0.9-0.2l0.7-0.2c0.2-0.1,0.4-0.1,0.6-0.1c0.3,0,0.6,0.1,0.8,0.3
			c0.3,0.3,0.4,0.6,0.4,0.9c0,0.4-0.1,0.7-0.4,1c-0.1,0.1-0.3,0.2-0.5,0.4c-0.2,0.1-0.4,0.2-0.4,0.2c-0.1,0.1-0.1,0.1-0.1,0.2
			c0,0.1,0,0.1,0.1,0.2l-0.1,0.1l-1.3-1l0.1-0.1c0.4,0.2,0.8,0.3,1.1,0.3c0.3-0.1,0.6-0.2,0.8-0.4c0.1-0.1,0.2-0.3,0.2-0.5
			c0-0.2-0.1-0.4-0.2-0.5c-0.1-0.1-0.3-0.2-0.5-0.2c-0.2,0-0.4,0-0.7,0.1l-0.8,0.2c-0.5,0.1-0.8,0.2-1.1,0.1c-0.3,0-0.5-0.1-0.7-0.3
			c-0.3-0.3-0.4-0.6-0.4-1c0-0.4,0.2-0.8,0.5-1.1c0.2-0.2,0.4-0.3,0.6-0.4c0.2-0.1,0.4-0.2,0.4-0.2c0.1-0.1,0.1-0.1,0.1-0.2
			c0-0.1,0-0.1-0.1-0.2l0.1-0.1l1.3,0.9L166.1,278.2z"/>
		<path class="st1" d="M162.4,280.1c-0.2,0.2-0.3,0.3-0.4,0.4c0,0.1,0,0.3,0.2,0.5l1.9,2.8c0.2,0.2,0.3,0.3,0.4,0.4
			c0.1,0,0.3,0,0.5-0.2l0.1,0.1l-3.3,2.3l-0.6-0.9l0.2-0.1c0.2,0.2,0.4,0.4,0.6,0.4c0.2,0,0.4-0.1,0.8-0.4l0.8-0.6
			c0.1-0.1,0.1-0.1,0.1-0.2c0,0,0-0.1-0.1-0.2l-1-1.4l-1,0.7c-0.3,0.2-0.4,0.3-0.4,0.5c0,0.1,0,0.3,0.2,0.6l-0.1,0.1l-1-1.4l0.1-0.1
			c0.2,0.2,0.4,0.3,0.5,0.4c0.1,0,0.3-0.1,0.6-0.2l1-0.7l-1.1-1.5c-0.1-0.1-0.2-0.2-0.3-0.1c-0.1,0-0.3,0.2-0.7,0.5
			c-0.4,0.3-0.7,0.6-0.8,0.8c-0.1,0.2-0.2,0.6-0.1,1l-0.2,0.1l-0.4-1.2l3.4-2.3L162.4,280.1z"/>
	</g>
	
		<ellipse transform="matrix(0.9813 -0.1927 0.1927 0.9813 -41.6803 31.2632)" class="st1" cx="139.9" cy="229.9" rx="2.1" ry="1.1"/>
	
		<ellipse transform="matrix(0.1927 -0.9813 0.9813 0.1927 -99.7425 338.5459)" class="st1" cx="155.9" cy="229.9" rx="1.1" ry="2.1"/>
	<circle class="st1" cx="147.9" cy="217.6" r="1.2"/>
	<path class="st1" d="M147.9,298.2c-0.9,0-1.7,0.8-1.7,1.7c0,0.9,0.8,1.7,1.7,1.7c0.9,0,1.7-0.8,1.7-1.7
		C149.6,298.9,148.8,298.2,147.9,298.2z M147.9,300.9c-0.6,0-1-0.4-1-1c0-0.6,0.4-1,1-1c0.6,0,1,0.4,1,1
		C148.9,300.4,148.4,300.9,147.9,300.9z"/>
	<path class="st1" d="M147.9,283.1c-0.9,0-1.7,0.7-1.7,1.5c0,0.8,0.8,1.5,1.7,1.5c0.9,0,1.7-0.7,1.7-1.5
		C149.6,283.8,148.8,283.1,147.9,283.1z M147.9,285.5c-0.6,0-1-0.4-1-0.9c0-0.5,0.4-0.9,1-0.9c0.6,0,1,0.4,1,0.9
		C148.9,285.1,148.4,285.5,147.9,285.5z"/>
	<path class="st1" d="M146.3,291.3c-0.9,0-1.7,0.7-1.7,1.5c0,0.8,0.8,1.5,1.7,1.5c0.9,0,1.7-0.7,1.7-1.5
		C148,291.9,147.2,291.3,146.3,291.3z M146.3,293.6c-0.6,0-1-0.4-1-0.9c0-0.5,0.4-0.9,1-0.9c0.6,0,1,0.4,1,0.9
		C147.3,293.2,146.8,293.6,146.3,293.6z"/>
	<path class="st1" d="M137.8,284.8c-0.9,0-1.7,0.8-1.7,1.7c0,0.9,0.8,1.7,1.7,1.7c0.9,0,1.7-0.8,1.7-1.7
		C139.5,285.6,138.8,284.8,137.8,284.8z M137.8,287.6c-0.6,0-1-0.4-1-1c0-0.6,0.4-1,1-1c0.6,0,1,0.4,1,1
		C138.8,287.1,138.4,287.6,137.8,287.6z"/>
	<path class="st1" d="M147.9,311c-0.4,0.5-1.3,2.2-1.3,3.5c0,1.1,0.6,2,1.3,2c0.7,0,1.3-0.9,1.3-2
		C149.2,313.2,148.3,311.5,147.9,311z"/>
	<path class="st1" d="M162.8,235.6L162.8,235.6c1.2-1.2-0.3-1.8-0.3-1.8c-0.1,0-0.2-0.1-0.3-0.1l0,0c0,0,2.2-0.9,1.4-3.4
		c0,0,1.2-0.1,1.7-0.9c0.4-0.8,0.1-1.6-0.8-2l3.3-4.7c0,0,1.5,0.3,1.2-1.5l3.4-3.5c0,0-1.4-1.2-4.4-1.9c0,0,0.2,4.3-0.7,4.8
		c0,0-0.8-1.7-0.9-3.7L163,222c2.2-0.6,3.3-0.3,3.3-0.3l0,0c-1.4,2.3-4,3.3-6,2.3c-1-0.5-1.6-1.5-1.9-2.6c0.6,0,1-0.2,1-0.5
		c0-0.3-0.3-0.6-0.7-0.8c0.2-0.7,0.6-1.4,1.3-1.5c0.7-0.1,1.5,0.2,1.6,1.2c0.1,1-0.8,1.6-0.8,1.6c1.9,0.3,2.8-1.2,2.8-2.4
		c0-0.8-0.5-2-2-2.2c-1.7-0.2-2.9,2-2.9,2c0-0.3,0.5-2.1,1.7-3.2c1.1-1.1,0.3-2.3,0.3-2.3l-1.3-2.2l-1.9,1.6c0,0-1.2,0.9-0.5,2.3
		c0.7,1.4,0.7,3.2,0.6,3.5c0,0-0.4-2.5-2.1-2.8c-1.6-0.3-2.4,0.7-2.6,1.4c-0.4,1.1-0.1,2.9,1.9,3.2c0,0-0.6-0.8-0.2-1.7
		c0.4-0.9,1.3-0.9,1.9-0.6c0.6,0.3,0.8,1.1,0.7,1.8c-0.5,0-0.9,0.2-1,0.5c0,0.3,0.2,0.6,0.6,0.8c-0.6,1.2-1.8,1.7-3.2,1.7
		c-1.9,0-3.5-1.2-4.1-2.9c0,0,1,0.2,2.6,1.3v-6.7l-2.4,1.1c0.4-1.6,2.3-3.2,2.3-3.2h-8.1c0,0,1.9,1.5,2.3,3.2l-2.5-1.1v6.7
		c1.6-1.1,2.6-1.3,2.6-1.3c-0.5,1.7-2.2,2.9-4.1,2.9c-1.4,0-2.7-0.5-3.2-1.7c0.4-0.2,0.7-0.5,0.6-0.8c0-0.3-0.4-0.5-1-0.5
		c0-0.7,0.2-1.5,0.7-1.8c0.6-0.3,1.5-0.3,1.9,0.6c0.4,0.9-0.2,1.7-0.2,1.7c1.9-0.3,2.3-2.1,1.9-3.2c-0.3-0.7-1.1-1.7-2.6-1.4
		c-1.7,0.3-2.1,2.8-2.1,2.8c-0.1-0.3-0.2-2.2,0.6-3.5c0.7-1.4-0.5-2.3-0.5-2.3l-1.9-1.6l-1.3,2.2c0,0-0.9,1.2,0.3,2.3
		c1.1,1.1,1.7,2.8,1.7,3.2c0,0-1.2-2.2-2.9-2c-1.6,0.2-2,1.4-2,2.2c0,1.2,0.9,2.8,2.8,2.4c0,0-0.9-0.6-0.8-1.6
		c0.1-1,0.9-1.3,1.6-1.2c0.7,0.1,1.1,0.8,1.3,1.5c-0.5,0.2-0.8,0.5-0.7,0.8c0,0.3,0.5,0.5,1,0.5c-0.2,1.1-0.9,2.1-1.9,2.6
		c-2,1-4.6,0-6-2.3l0,0c0,0,1.1-0.3,3.3,0.3l-3.2-5.2c-0.1,2-0.9,3.7-0.9,3.7c-0.9-0.5-0.7-4.8-0.7-4.8c-3.1,0.7-4.4,1.9-4.4,1.9
		l3.4,3.5c-0.3,1.8,1.2,1.5,1.2,1.5l3.3,4.7c-0.9,0.4-1.2,1.2-0.8,2c0.4,0.8,1.7,0.9,1.7,0.9c-0.8,2.5,1.4,3.4,1.4,3.4l0,0
		c-0.1,0-0.2,0.1-0.3,0.1c0,0-1.5,0.6-0.3,1.8l0,0c-9.7,5.3-16.3,15.6-16.3,27.4c0,6,1.7,11.6,4.7,16.4l-0.4,0.3c0,0-0.4,0.1,0,0.9
		c0.4,0.8,2.3,3.5,2.3,3.5h0.9l-0.9-1.9c1.3,1.7,2.8,3.2,4.4,4.6l-0.2,0.2c0,0-0.3,0.3,0,0.6c0.3,0.2,0.9,0.7,0.9,0.7
		s0.3,0.2,0.4,0.1c0,0,0.1-0.2,0.3-0.4c3.2,2.4,7.6,5.6,12.2,7.7v3.2c-1.2,0.1-1.3,1.2-1.3,1.2s1.3,0.1,1.3,1.2v6.5
		c0,0,0,3.8,4.2,4.9c0-0.1,0.1-0.2,0.1-0.3c-2-0.6-2.8-2.1-2.8-2.1c1.2,1,2.3,1.4,3.1,1.6c0.7-1.2,1.5-2.2,2-2.6
		c0.5,0.4,1.3,1.5,2,2.6c0.7-0.2,1.9-0.6,3.1-1.6c0,0-0.9,1.5-2.8,2.1c0,0.1,0.1,0.2,0.1,0.3c4.2-1.1,4.2-4.9,4.2-4.9v-6.5
		c0-1.1,1.3-1.2,1.3-1.2s-0.1-1.1-1.3-1.2v-1.3c2.3-0.5,4.8-1.6,7.4-4.5c2.3-1.7,2.7-3.6,2.7-3.6c8.8-5.5,14.6-15.3,14.6-26.4
		C179.1,251.2,172.5,240.9,162.8,235.6z M162.3,231l-1.6,0.2l1,1.1c0,0-0.1,0.9-0.5,1c0,0,0,0,0,0c-3.8-1.5-8-2.3-12.4-2.4l3.4-1.8
		l-2.7-1.7c4.6,0.2,9.1,1.1,13.2,2.7C162.7,229.9,162.7,230.6,162.3,231z M147.9,230.1l-2.3-1.2l2.3-1.5l2.3,1.5L147.9,230.1z
		 M136,224.9c1.2-0.6,2-1.6,2.5-2.8l0,0c0.9,1.1,2.3,1.7,3.9,1.7c2.8,0,5.1-2.2,5.2-5c0,0-1.5-0.1-2.8,0.6V216l2.5,0.6
		c0,0,0.2-1.3-1.1-3h3.5c-1.2,1.7-1.1,3-1.1,3l2.5-0.6v3.5c-1.2-0.6-2.8-0.6-2.8-0.6c0.1,2.8,2.4,5,5.2,5c1.5,0,2.9-0.7,3.9-1.7v0
		c0.5,1.2,1.3,2.2,2.5,2.8c1.4,0.8,3,0.8,4.5,0.3c-1.6,1.2-3.6,1.5-5.2,0.6c-0.8-0.5-1.5-1.2-1.9-2c-1,0.8-2.3,1.2-3.7,1.2
		c-2.4,0-4.5-1.3-5.5-3.3v0c0,0,0,0,0,0c0,0,0,0,0,0v0c-1.1,2-3.2,3.3-5.5,3.3c-1.4,0-2.7-0.5-3.7-1.2c-0.4,0.9-1,1.6-1.9,2
		c-1.6,0.9-3.6,0.6-5.2-0.6C132.9,225.7,134.5,225.7,136,224.9z M132.5,229.1c0,0-0.6,0.2-0.7-0.3c-0.1-0.4,0.3-0.5,0.3-0.5
		c4.9-1.9,10.2-3,15.8-3c5.6,0,10.9,1.1,15.8,3c0,0,0.3,0.2,0.3,0.5c-0.1,0.5-0.7,0.3-0.7,0.3c-4.8-1.9-10-2.9-15.4-2.9
		S137.2,227.3,132.5,229.1z M133.5,231c-0.4-0.4-0.4-1.1-0.4-1.1c4.1-1.6,8.6-2.5,13.2-2.7l-2.7,1.7l3.4,1.8
		c-4.4,0.1-8.5,1-12.4,2.4c0,0,0,0,0,0c-0.4-0.1-0.5-1-0.5-1l1-1.1L133.5,231z M121.4,280l4.5-2.5c0,0-3.6,2.9-4.3,2.9
		C120.8,280.4,121.4,280,121.4,280z M153.5,291.9L153.5,291.9c-0.4-0.2-0.7-0.4-1-0.6c0-2.1,0.1-10.7,1.9-11.5c0,0,0.6-0.3,0.4,0.5
		l-0.1,0.4l0,0v0C153.5,282.5,153.5,290,153.5,291.9z M126.9,276.2c0.4,1,1.2,2.5,2,2.7c1.5,0.2,1.1-1.3,1.1-1.3
		c0.3,0.2,0.5,0.5,0.4,0.8c0,0.4-0.3,0.9-1,1c-1.2,0.2-1.7-1-1.7-1c0,0.9,0.8,1.7,1.7,1.7c0.9,0,1.7-0.8,1.7-1.7
		c0-0.9-0.7-1.5-1.8-1.6l-0.6-0.3l2.5-1.6c1,1.3,2.1,2.6,3.3,3.6l-5.4,6.3c-1.9-1.6-3.6-3.5-5-5.6l2.8-1.7
		C127,277.6,126.8,276.9,126.9,276.2z M130.9,273.5c-1.9-3.1-3-6.6-3-10.5c0-11,8.9-20,20-20c11,0,20,8.9,20,20
		c0,8.4-5.2,15.6-12.6,18.6l0,0c0.2-0.8,0.5-1.3,0.8-1.4c6.4-3.1,10.8-9.6,10.8-17.1c0-10.5-8.5-19-19-19c-10.5,0-19,8.5-19,19
		c0,3.7,1,7.1,2.8,10L130.9,273.5z M131.7,274.7l0.8-0.5c0.9,1.2,1.9,2.3,3.1,3.3l-0.6,0.7C133.7,277.2,132.6,276,131.7,274.7z
		 M135.4,276.9l-1.9-3.3c0,0-0.7-1-1.5-0.7c0,0,0,0,0-0.1c0.5-0.3,0.9-0.4,1.3-0.3c0.4,0.1,0.5,0.5,0.5,0.5c0,0,0,0,0,0l1.9,3.3
		l0.1,1C135.7,277.1,135.5,277,135.4,276.9z M134.1,272.8c0-0.1-0.3-0.5-0.8-0.6c-0.4-0.1-1,0-1.6,0.3c-1.6-2.8-2.6-6-2.6-9.5
		c0-10.3,8.3-18.6,18.6-18.6c10.3,0,18.6,8.3,18.6,18.6c0,7.7-4.7,14.3-11.3,17.2c0.1-0.2,0.2-0.6-0.1-0.7c-0.3-0.3-0.7-0.1-1.4,0.4
		c0,0-4.2,1.5-8.9,0.6c-0.9-0.2-1.4,0-1.8,0.3c-2.3,0.3-3.6-0.8-3.6-0.8c-1.1-0.9-2.2-1.9-3.3-2.7l-0.1-1c0,0,0-0.1,0-0.1
		L134.1,272.8z M145.1,280.7c1.5,0.2,4,0.7,8.6-0.6c-1.4,1.6-1.5,8.6-1.6,10.9c-1.8-1.1-2.6-1.9-5.5-4.5c-0.8-0.7-1.7-1.5-2.5-2.3
		C144.1,282.3,144.9,281.1,145.1,280.7z M143.6,283.7l-0.8-0.9c-0.2-0.8,0.2-1.7,0.2-1.7s0.3-0.7,1.6-0.5
		C144.3,281,143.7,282,143.6,283.7z M141.7,281.1c-0.1,0.2-0.2,0.6-0.2,0.6c-0.3-0.2-0.6-0.6-0.9-0.9
		C140.6,280.9,141.1,281.1,141.7,281.1z M137,278.6c3.1,2.1,6.4,6.3,9.1,8.6c1.9,1.6,6.5,5.9,9.3,6.3c-3-0.3-5.6-2-7.6-3.6
		c-3.3-2.7-8.2-8.2-11.5-10.5C136.7,279,136.9,278.8,137,278.6z M155.1,282.2L155.1,282.2c7.7-2.9,13.2-10.4,13.2-19.1
		c0-11.3-9.2-20.5-20.5-20.5c-11.3,0-20.5,9.2-20.5,20.5c0,3.9,1.1,7.6,3.1,10.8l-3.2,1.9l-0.8-0.5c0,0,0.1,0.3,0.3,0.8l-3.4,2.1
		c-2.7-4.4-4.3-9.6-4.3-15.1c0-15.9,12.9-28.7,28.7-28.7c15.9,0,28.7,12.9,28.7,28.7c0,13.6-9.5,25-22.2,28
		C154.5,288.9,154.5,284.6,155.1,282.2z M122.9,280.1l0.8-0.5c1.5,2.1,3.2,4,5.1,5.7l-0.6,0.7C126.2,284.3,124.4,282.3,122.9,280.1z
		 M128.7,287.8c-0.1,0.1-0.2,0-0.2,0l-0.4-0.3c-0.2-0.1,0-0.3,0-0.3l6.2-6.5c0,0-0.1,0.5-0.4,0.9
		C133.8,281.8,128.8,287.7,128.7,287.8z M143.2,300.3c-0.2-0.5-0.5-1-1-1.2v-3c0.3,0.1,0.6,0.3,1,0.4V300.3z M152.2,307.6
		c-0.2,1.5-1.2,2.4-2.1,2.4c-1.1,0-1.8-1.2-1.8-1.7c0-0.4,0.1-1.3,1.1-1.3c1,0,0.9,0.8,0.9,0.8c1.4-0.9,0.3-2.2-0.4-2.2
		c-0.6,0-1,0.3-1,0.3c0.3-1.7-1-2.6-1-2.6s-1.3,0.9-1,2.6c0,0-0.3-0.3-1-0.3c-0.6,0-1.8,1.3-0.4,2.2c0,0-0.1-0.8,0.9-0.8
		c1,0,1.1,0.9,1.1,1.3c0,0.4-0.7,1.7-1.8,1.7c-0.9,0-2-1-2.1-2.4c-0.2-1.7,0.3-3.9,2.4-3.9c0,0,0.7-1.7-1-1.8
		c-0.7-0.1-1.1,0.2-1.2,0.3v-5.5c2.1,0.8,4.1,1.2,6.1,1.2c0.7,0,1.5,0,2.3,0v4.3c-0.1-0.1-0.5-0.3-1.2-0.3c-1.7,0.1-1,1.8-1,1.8
		C152,303.7,152.4,305.9,152.2,307.6z M153.5,299.1c-0.5,0.3-0.8,0.7-1,1.2v-2.5c0.3,0,0.6-0.1,1-0.1V299.1z M147.9,297
		c-6.7-1.1-13.1-6-18.1-9.8c0.2-0.2,0.4-0.5,0.6-0.7c4.9,3.6,13.1,10.3,19.7,10.3c2.3,0,4.4-0.1,6.3-1.1c-1.9,0.8-5.3,1.1-8.5,0.4
		c-6.3-1.4-12.4-6.4-17.2-10c1.7-2,4-4.7,5.4-6.3c3.3,2.4,8,7.6,11.8,10.9c4.2,3.7,8.9,3.5,12.7,2.9
		C159.4,294.6,155.8,298.4,147.9,297z M161.2,292.3c-2.1,1.3-4.3,0.6-4.3,0.6c2.2-0.7,4.4-1.6,6.4-2.7
		C163.3,290.2,163.3,291,161.2,292.3z M154.5,292.5l0-1c13-3,22.6-14.6,22.6-28.5c0-16.1-13.1-29.2-29.2-29.2
		c-16.1,0-29.2,13.1-29.2,29.2c0,5.6,1.6,10.9,4.4,15.4l-0.8,0.5c-2.9-4.6-4.5-10.1-4.5-15.9c0-16.7,13.5-30.2,30.2-30.2
		c16.7,0,30.2,13.5,30.2,30.2C178.1,277.5,168,289.5,154.5,292.5z"/>
</g>
</svg>
